<svg width="52" height="52" viewBox="0 0 52 52" fill="none" xmlns="http://www.w3.org/2000/svg">
<path d="M0.000312805 23.8C0.000312805 14.6344 0.000312805 10.0516 2.06335 6.68502C3.21773 4.80124 4.80156 3.21742 6.68533 2.06304C10.0519 0 14.6347 0 23.8003 0H28.2006C37.3662 0 41.949 0 45.3156 2.06304C47.1994 3.21742 48.7832 4.80124 49.9376 6.68502C52.0006 10.0516 52.0006 14.6344 52.0006 23.8V28.2003C52.0006 37.3659 52.0006 41.9487 49.9376 45.3153C48.7832 47.1991 47.1994 48.7829 45.3156 49.9373C41.949 52.0003 37.3662 52.0003 28.2006 52.0003H23.8003C14.6347 52.0003 10.0519 52.0003 6.68533 49.9373C4.80156 48.7829 3.21773 47.1991 2.06335 45.3153C0.000312805 41.9487 0.000312805 37.3659 0.000312805 28.2003V23.8Z" fill="#FDC8A6"/>
<path d="M32.5986 9.27148L27.4666 37.1308L31.1324 37.8639C38.8913 32.1821 42.221 9.27148 32.5986 9.27148Z" fill="#4E1E30"/>
<path d="M32.5989 9.27139C31.3159 8.49238 24.5445 6.514 19.4024 9.27139C13.0791 12.6622 7.54991 24.7895 16.4698 37.1307C16.4825 37.1482 23.0681 36.3976 23.0681 36.3976L32.5989 9.27139Z" fill="#4E1E30"/>
<path fill-rule="evenodd" clip-rule="evenodd" d="M32.5986 51.9786C30.9955 52.0003 29.208 52.0003 27.2006 52.0003H22.8003C21.5903 52.0003 20.4601 52.0003 19.4021 51.9956L19.4021 38.3088C20.8614 37.2069 20.8684 35.3853 20.8684 33.7094V31.9988H31.1323V33.7112H31.1722C31.1722 35.3727 31.1766 37.1785 32.5986 38.2832V51.9786Z" fill="#FFD7A3"/>
<path fill-rule="evenodd" clip-rule="evenodd" d="M31.8655 51.987C30.4549 52.0003 28.9072 52.0003 27.2006 52.0003H22.8003C22.3917 52.0003 21.9923 52.0003 21.6016 52.0001L21.6016 46.8226C22.9363 47.1856 24.424 47.3946 26.0005 47.3946C28.183 47.3946 30.2023 47.0026 31.8655 46.3389V51.987Z" fill="#FF9054"/>
<path d="M31.8654 41.5295C32.1329 41.6025 32.3738 41.6414 32.5985 41.6603V38.2832C31.1767 37.1785 31.1721 35.3726 31.1721 33.711L31.1711 33.6685V31.9561L23.0677 31.9986L20.8683 32.7317C22.3346 34.3814 26.8252 40.1549 31.8654 41.5295Z" fill="#FDC88E"/>
<path d="M36.2648 22.4677C36.2648 28.3388 30.4258 35.6642 26.0008 35.6642C21.5759 35.6642 15.7369 28.3388 15.7369 22.4677C15.7369 16.5966 20.3323 14.4031 26.0008 14.4031C31.6694 14.4031 36.2648 16.5966 36.2648 22.4677Z" fill="#FFE1B2"/>
<path d="M27.4666 10.7378C27.0547 10.7378 25.7173 11.2006 24.6242 11.6062L24.5341 11.4709C24.5341 11.4709 24.3832 11.5894 24.1221 11.7949C23.5141 12.0257 23.0679 12.204 23.0679 12.204L23.2393 12.4899C20.4566 14.6823 14.1078 19.6976 13.5369 20.2686C12.8038 21.0017 17.9358 39.7063 17.9358 29.0663C17.9358 20.177 22.8744 18.4166 27.4666 17.3361C29.5438 16.8473 30.1548 15.6254 30.3991 14.4035C30.6436 13.1817 28.1998 10.7378 27.4666 10.7378Z" fill="#4E1E30"/>
<path d="M29.6661 15.1365C31.0102 19.963 33.6984 22.1472 36.2186 22.7887C37.5996 23.1402 36.9976 18.8023 36.9976 18.8023C36.9976 18.8023 35.0425 13.7924 34.7982 13.6703C34.5539 13.5481 32.5988 9.27148 32.5988 9.27148L28.1999 12.9372L29.6661 15.1365Z" fill="#4E1E30"/>
<path fill-rule="evenodd" clip-rule="evenodd" d="M23.5557 52.0003C14.7788 52.0002 10.252 51.9828 6.93876 50.0874V47.3949C6.93876 42.9409 10.5495 39.3303 15.0034 39.3303H15.2477C18.1206 39.3303 19.5205 38.546 20.2072 37.4304L23.5557 52.0003Z" fill="#37CFD1"/>
<path fill-rule="evenodd" clip-rule="evenodd" d="M45.0621 50.0874C41.7488 51.9828 37.222 52.0002 28.4451 52.0003L31.7937 37.4304C32.4803 38.546 33.8802 39.3303 36.7531 39.3303H36.9975C41.4514 39.3303 45.0621 42.9409 45.0621 47.3949V50.0874Z" fill="#37CFD1"/>
<path d="M35.1722 22.5348C36.3718 22.2598 37.1577 22.8473 37.1577 24.0011C37.1577 25.5285 35.5446 29.2705 33.8486 26.9336C32.1527 24.5967 35.1722 22.5348 35.1722 22.5348Z" fill="#FFE1B2"/>
</svg>
