<svg width="53" height="52" viewBox="0 0 53 52" fill="none" xmlns="http://www.w3.org/2000/svg">
<path d="M0.0015564 23.8C0.0015564 14.6344 0.0015564 10.0516 2.06459 6.68502C3.21897 4.80124 4.8028 3.21742 6.68658 2.06304C10.0531 0 14.636 0 23.8016 0H28.2019C37.3675 0 41.9503 0 45.3168 2.06304C47.2006 3.21742 48.7845 4.80124 49.9388 6.68502C52.0019 10.0516 52.0019 14.6344 52.0019 23.8V28.2003C52.0019 37.3659 52.0019 41.9487 49.9388 45.3153C48.7845 47.1991 47.2006 48.7829 45.3168 49.9373C41.9503 52.0003 37.3675 52.0003 28.2019 52.0003H23.8015C14.6359 52.0003 10.0531 52.0003 6.68658 49.9373C4.8028 48.7829 3.21897 47.1991 2.06459 45.3153C0.0015564 41.9487 0.0015564 37.3659 0.0015564 28.2003V23.8Z" fill="#37CFD1"/>
<path d="M37.3404 17.2235V25.6923C37.3404 25.8147 37.3377 25.9371 37.3347 26.0596C37.332 26.1598 37.3293 26.2573 37.3236 26.3578C37.3209 26.4469 37.3152 26.536 37.3068 26.6251C37.3041 26.689 37.2984 26.7532 37.293 26.8172C37.29 26.8564 37.2873 26.8922 37.2816 26.9315C37.2762 27.0011 37.2705 27.0734 37.2594 27.143C37.2483 27.2765 37.2315 27.4076 37.212 27.5412C37.2093 27.5748 37.2036 27.6081 37.1982 27.6414C37.1898 27.7083 37.1787 27.7752 37.1676 27.8418V27.8502C37.151 27.9475 37.1342 28.0423 37.1174 28.1398C37.0923 28.2733 37.0673 28.4071 37.0394 28.538C37.0367 28.5436 37.0367 28.5493 37.034 28.555C37.0313 28.5743 37.0283 28.594 37.0229 28.6135C37.0202 28.6192 37.0202 28.6246 37.0172 28.6303C37.0034 28.7029 36.9866 28.7723 36.9698 28.8419C36.9644 28.8725 36.9587 28.9034 36.9476 28.934C36.9392 28.9841 36.9251 29.0339 36.9143 29.0843C36.9059 29.1122 36.9005 29.1428 36.8891 29.1704C36.8834 29.1956 36.8753 29.2208 36.8696 29.243C36.8111 29.4713 36.7442 29.6943 36.6746 29.9169C36.641 30.0228 36.6077 30.1258 36.5717 30.2317C36.5689 30.2428 36.5633 30.2539 36.5606 30.265C36.5272 30.3598 36.4936 30.4543 36.4603 30.5491C36.4492 30.577 36.4381 30.6046 36.427 30.6353C36.3934 30.7244 36.3601 30.8135 36.3241 30.9026C36.2824 31.0109 36.2377 31.1168 36.1933 31.223C36.1543 31.3178 36.1125 31.4121 36.0708 31.5069C36.0654 31.524 36.057 31.5375 36.0513 31.5543C36.0039 31.6545 35.9595 31.7547 35.9121 31.8525C35.8647 31.9554 35.8146 32.0586 35.7618 32.1618C35.6616 32.365 35.5529 32.5684 35.4443 32.7659L35.294 33.0332C34.8649 33.7713 34.389 34.4644 33.8709 35.105C33.8013 35.1969 33.7289 35.286 33.6536 35.3721C33.5507 35.4975 33.4448 35.6199 33.3389 35.7397C33.2441 35.8456 33.1496 35.9512 33.0521 36.0544C32.7847 36.3413 32.5117 36.614 32.2332 36.8705C32.1774 36.9261 32.1192 36.9764 32.0607 37.0292C31.9659 37.1154 31.8714 37.1991 31.7739 37.2798C31.6988 37.3467 31.6208 37.4106 31.5425 37.4748C31.3421 37.639 31.1417 37.7977 30.9382 37.9453C30.8548 38.0095 30.7684 38.0707 30.682 38.1292C30.5428 38.2294 30.4006 38.3242 30.2586 38.4163C30.1806 38.4692 30.0999 38.5193 30.0192 38.5667C29.7351 38.7419 29.4482 38.9036 29.1641 39.0428C29.0945 39.0791 29.0249 39.1127 28.9553 39.146C28.8856 39.1794 28.8133 39.2129 28.738 39.2463C28.6462 39.288 28.5541 39.327 28.4623 39.3633C28.426 39.3798 28.39 39.3939 28.3537 39.405C28.245 39.4497 28.1337 39.4911 28.0251 39.5274C27.8889 39.5778 27.7494 39.6195 27.6131 39.6582C27.5183 39.6861 27.4211 39.7111 27.3263 39.7333C27.3206 39.7363 27.3152 39.739 27.3068 39.739C27.212 39.7614 27.1174 39.7837 27.0226 39.8005C26.9977 39.8061 26.9725 39.8116 26.9476 39.8145C26.8696 39.8284 26.7916 39.8424 26.7136 39.8508C26.6023 39.8676 26.4907 39.8814 26.3793 39.8869C26.3403 39.8925 26.3043 39.8953 26.2653 39.8953C26.1762 39.9007 26.0871 39.9036 26.0007 39.9036H25.9923C25.9061 39.9036 25.8197 39.9007 25.7333 39.8953C25.7 39.8953 25.6664 39.8925 25.6331 39.8869C25.5551 39.8841 25.4744 39.8758 25.3907 39.8646C25.3742 39.8646 25.3547 39.8619 25.3379 39.859C25.2349 39.8451 25.1317 39.8284 25.0261 39.8088C24.937 39.7948 24.8479 39.7753 24.7558 39.753C24.2796 39.6444 23.7896 39.48 23.2939 39.2603C22.8706 39.0737 22.4418 38.8481 22.0157 38.5864C21.8015 38.4556 21.587 38.3164 21.3751 38.1688C21.2692 38.0935 21.1636 38.0182 21.0577 37.9402C20.7262 37.6977 20.3976 37.4334 20.0747 37.1492C19.9856 37.0685 19.8965 36.9878 19.8074 36.9044C19.7183 36.8237 19.6292 36.74 19.5428 36.6593C19.3255 36.4504 19.114 36.2335 18.9079 36.0078C18.8271 35.9214 18.7464 35.8326 18.6654 35.7405C18.4428 35.4899 18.2255 35.231 18.0194 34.9607C17.9387 34.8634 17.8634 34.7632 17.7884 34.6627C17.5069 34.2895 17.2399 33.8997 16.9891 33.4956C16.9222 33.3872 16.8553 33.2759 16.7913 33.167C16.7133 33.0362 16.6383 32.9024 16.563 32.7688C16.2845 32.2675 16.0283 31.7469 15.8057 31.2092C15.7721 31.1312 15.7388 31.0532 15.7109 30.9755C15.6664 30.8752 15.6274 30.772 15.5911 30.6718C15.5353 30.5242 15.4825 30.3766 15.4324 30.229C15.3823 30.0813 15.3349 29.9307 15.2875 29.7807C15.2431 29.6358 15.2014 29.4911 15.1624 29.3435C15.1177 29.1875 15.076 29.0288 15.0397 28.8673C15.0369 28.8505 15.0313 28.8337 15.0285 28.8169C14.9757 28.5943 14.9283 28.3687 14.8866 28.1403C14.8308 27.8397 14.7864 27.5333 14.7531 27.224C14.739 27.1268 14.7306 27.029 14.7225 26.9317C14.7114 26.8285 14.703 26.7283 14.6973 26.6254C14.6835 26.4388 14.6751 26.2492 14.6694 26.0598C14.6667 25.9374 14.6637 25.815 14.6637 25.6925V17.2235C14.6637 10.9657 19.7348 5.89189 25.9923 5.88647H26.0037C26.8669 5.88647 27.7079 5.98371 28.5154 6.16492C29.2535 6.33177 29.9637 6.57149 30.6373 6.87485C31.5564 7.28684 32.4112 7.81638 33.1799 8.44857C33.8262 8.97757 34.4137 9.57347 34.9262 10.2309C36.4189 12.1329 37.3182 14.5224 37.3377 17.1232C37.3404 17.1566 37.3404 17.1899 37.3404 17.2235Z" fill="#FFE1B2"/>
<path fill-rule="evenodd" clip-rule="evenodd" d="M39.6611 51.6649C36.8416 52.0003 33.2043 52.0003 28.2019 52.0003H23.8016C18.7995 52.0003 15.1623 52.0003 12.3429 51.665C12.4423 51.421 12.5506 51.1818 12.6639 50.945C13.1512 49.9174 13.7584 48.9564 14.4629 48.0766C14.6412 47.8564 14.8221 47.6419 15.0087 47.436C15.0955 47.3359 15.1874 47.2387 15.2795 47.1413L15.2956 47.1242C15.3928 47.024 15.4906 46.9238 15.5905 46.8236C16.0892 46.3249 16.6236 45.8685 17.1865 45.4479C17.4676 45.239 17.7518 45.044 18.047 44.8549C18.3422 44.6683 18.6429 44.4898 18.9492 44.323C18.9549 44.3176 18.9604 44.3176 18.9604 44.3176C19.0801 44.2534 19.1971 44.1837 19.3141 44.1114C19.6622 43.9026 19.9964 43.6713 20.3139 43.4153C21.659 42.3459 22.7004 40.9087 23.2936 39.2603C23.6474 38.2743 23.8394 37.2134 23.8394 36.105L25.992 36.1161L28.206 36.1275C28.206 37.2217 28.3926 38.2716 28.738 39.2465C29.3228 40.9006 30.3615 42.3432 31.7066 43.418C31.9071 43.5824 32.1105 43.7328 32.3247 43.875C32.3472 43.8915 32.3665 43.9053 32.3889 43.9194C32.4892 43.9863 32.5894 44.0529 32.6953 44.1144C32.8093 44.184 32.9263 44.2536 33.0433 44.3178C33.0628 44.3232 33.0796 44.3316 33.0935 44.3427C33.3386 44.4793 33.5807 44.6212 33.8175 44.7688C33.9318 44.8384 34.0458 44.9107 34.1571 44.9915C34.3885 45.1391 34.6138 45.3008 34.834 45.4679C34.834 45.4706 34.8367 45.4706 34.8367 45.4706H34.8394C35.1209 45.6795 35.3936 45.9024 35.661 46.1307C35.9283 46.3593 36.1846 46.5985 36.4324 46.8466C37.8055 48.2136 38.9099 49.8477 39.6611 51.6649Z" fill="#F0C290"/>
<path fill-rule="evenodd" clip-rule="evenodd" d="M39.6609 51.6649C36.8414 52.0003 33.2042 52.0003 28.2019 52.0003H23.8016C18.7986 52.0003 15.1611 52.0003 12.3415 51.6648C12.441 51.4205 12.5497 51.1809 12.6631 50.9436C13.1504 49.9163 13.7574 48.9552 14.4622 48.0752C14.6404 47.8553 14.8216 47.6407 15.008 47.4349C15.0998 47.329 15.1973 47.226 15.2948 47.1231C15.3923 47.0229 15.4898 46.9227 15.5901 46.8225C16.0885 46.3238 16.6231 45.8674 17.1857 45.4467C17.4672 45.2379 17.751 45.0429 18.0463 44.8536C18.1993 44.7563 18.3526 44.6615 18.5083 44.5697C18.6533 44.4833 18.8009 44.3996 18.9485 44.3189C18.9542 44.3132 18.9596 44.3162 18.9596 44.3162V44.3132C19.0793 44.2463 19.1963 44.1796 19.3134 44.1098C19.6614 43.8982 19.9957 43.6642 20.3074 43.408C20.3101 43.4109 20.3101 43.4109 20.3131 43.4136L20.3131 43.4136C21.7557 44.8896 23.7636 45.8059 25.9915 45.8116H26.014C28.2418 45.8116 30.2579 44.8926 31.7062 43.4166L31.7089 43.4136C31.9066 43.5781 32.1127 43.7314 32.3243 43.8733C32.3465 43.8898 32.366 43.9036 32.3882 43.9177C32.4801 43.9791 32.5745 44.0379 32.6689 44.0967L32.6945 44.1127C32.8086 44.1824 32.9259 44.2493 33.0426 44.3132C33.0558 44.317 33.0665 44.3233 33.0771 44.3296C33.0822 44.3326 33.0873 44.3356 33.0927 44.3384C33.2235 44.411 33.3573 44.486 33.4855 44.5637C33.5971 44.6306 33.7084 44.6975 33.817 44.7672C33.931 44.8368 34.0453 44.9091 34.1567 44.9898C34.388 45.1374 34.6133 45.2991 34.8333 45.4662H34.839C35.1201 45.6778 35.3959 45.898 35.6605 46.1288C35.9278 46.3574 36.1841 46.5968 36.4319 46.8447C37.8053 48.2124 38.9097 49.847 39.6609 51.6649Z" fill="#FF9054"/>
<path d="M37.3404 25.6921C37.3404 25.8146 37.3377 25.937 37.3347 26.0594C37.332 26.1596 37.3293 26.2572 37.3236 26.3576C37.3209 26.4468 37.3152 26.5359 37.3068 26.625C37.3041 26.6889 37.2984 26.7531 37.293 26.817C37.29 26.8563 37.2873 26.8921 37.2816 26.9313C37.2762 27.0009 37.2705 27.0733 37.2594 27.1429C37.2453 27.2764 37.2315 27.41 37.212 27.5411C37.2093 27.5746 37.2036 27.608 37.1982 27.6413C37.1898 27.7082 37.1787 27.7751 37.1676 27.8417C37.1537 27.9419 37.1342 28.0421 37.1174 28.1399C37.0952 28.2569 37.0728 28.371 37.0478 28.485C37.0449 28.5102 37.0394 28.5324 37.0338 28.5549C37.031 28.5741 37.0254 28.5939 37.0226 28.6134C37.0199 28.6191 37.0199 28.6245 37.017 28.6302C37.017 28.644 37.0142 28.6554 37.0115 28.6665C36.9977 28.725 36.9863 28.7835 36.9698 28.8417C36.9644 28.8723 36.9587 28.9032 36.9476 28.9338C36.9362 28.9894 36.9224 29.0422 36.9059 29.0953C36.9032 29.1205 36.8975 29.1456 36.8891 29.1703C36.8834 29.1955 36.8753 29.2207 36.8696 29.2429C36.8111 29.4712 36.7442 29.6941 36.6746 29.9168C36.641 30.0227 36.6077 30.1256 36.5717 30.2315C36.5689 30.2426 36.5633 30.2537 36.5606 30.2649C36.5272 30.3597 36.4936 30.4542 36.4603 30.549C36.4492 30.5769 36.4381 30.6045 36.427 30.6351C36.3934 30.7242 36.3601 30.8134 36.3241 30.9025C36.2824 31.0108 36.2377 31.1167 36.1933 31.2229C36.1543 31.3177 36.1125 31.412 36.0708 31.5068C36.0654 31.5238 36.057 31.5374 36.0513 31.5542C36.0039 31.6544 35.9595 31.7546 35.9121 31.8524C35.8647 31.9553 35.8146 32.0585 35.7618 32.1617C35.6616 32.3649 35.5529 32.5683 35.4443 32.7657L35.294 33.0331C34.8649 33.7712 34.389 34.4643 33.8709 35.1049C33.8013 35.1967 33.7289 35.2858 33.6536 35.372C33.5507 35.4974 33.4448 35.6198 33.3389 35.7395C33.2441 35.8454 33.1496 35.9511 33.0521 36.0543C32.7847 36.3411 32.5117 36.6139 32.2332 36.8704C32.1774 36.9259 32.1192 36.9763 32.0607 37.0291C31.9659 37.1153 31.8714 37.199 31.7739 37.2797C31.6988 37.3466 31.6208 37.4105 31.5425 37.4747C31.3421 37.6388 31.1417 37.7976 30.9382 37.9452C30.8548 38.0094 30.7684 38.0706 30.682 38.1291C30.5428 38.2293 30.4006 38.3241 30.2586 38.4162C30.1806 38.469 30.0999 38.5191 30.0192 38.5665C29.7351 38.7418 29.4482 38.9035 29.1641 39.0427C29.0945 39.079 29.0249 39.1126 28.9553 39.1459C28.8856 39.1792 28.8133 39.2128 28.738 39.2461C28.6462 39.2878 28.5541 39.3269 28.4623 39.3631C28.426 39.3797 28.39 39.3938 28.3537 39.4049C28.245 39.4496 28.1337 39.491 28.0251 39.5273C27.8889 39.5777 27.7494 39.6194 27.6131 39.6581C27.5183 39.686 27.4211 39.7109 27.3263 39.7331C27.3206 39.7361 27.3152 39.7388 27.3068 39.7388C27.212 39.7613 27.1174 39.7835 27.0226 39.8003C26.9977 39.806 26.9725 39.8114 26.9476 39.8144C26.8696 39.8282 26.7916 39.8423 26.7136 39.8507C26.6023 39.8675 26.4907 39.8813 26.3793 39.8867C26.3403 39.8924 26.3043 39.8951 26.2653 39.8951C26.1762 39.9005 26.0871 39.9035 26.0007 39.9035H25.9923C25.9061 39.9035 25.8197 39.9005 25.7333 39.8951C25.7 39.8951 25.6664 39.8924 25.6331 39.8867C25.5551 39.884 25.4744 39.8756 25.3907 39.8645C25.3742 39.8645 25.3547 39.8618 25.3379 39.8588C25.2349 39.845 25.1317 39.8282 25.0261 39.8087C24.937 39.7946 24.8479 39.7751 24.7558 39.7529C24.2796 39.6443 23.7896 39.4799 23.2939 39.2602C22.8706 39.0736 22.4418 38.848 22.0157 38.5863C21.8015 38.4582 21.5897 38.319 21.3751 38.1686C21.2692 38.0933 21.1636 38.018 21.0577 37.94C20.7262 37.6976 20.3976 37.4332 20.0747 37.1491C19.9856 37.0684 19.8965 36.9877 19.8074 36.9043C19.7183 36.8235 19.6292 36.7398 19.5428 36.6591C19.3255 36.4503 19.114 36.2333 18.9079 36.0077C18.8271 35.9213 18.7464 35.8324 18.6654 35.7404C18.4428 35.4898 18.2255 35.2309 18.0194 34.9605C17.9387 34.8633 17.8634 34.7631 17.7884 34.6626C17.5069 34.2893 17.2399 33.8996 16.9891 33.4954C16.9222 33.3871 16.8553 33.2758 16.7913 33.1669C16.7133 33.0361 16.6383 32.9022 16.563 32.7687C16.2845 32.2673 16.0283 31.7467 15.8057 31.2091C15.7721 31.1311 15.7388 31.0531 15.7109 30.9753C15.6664 30.8751 15.6274 30.7719 15.5911 30.6717C15.5353 30.5241 15.4825 30.3764 15.4324 30.2288C15.3823 30.0812 15.3349 29.9306 15.2875 29.7805C15.2431 29.6356 15.2014 29.491 15.1624 29.3434C15.1177 29.1874 15.076 29.0286 15.0397 28.8672C15.0369 28.8504 15.0313 28.8336 15.0285 28.8168C14.9757 28.5942 14.9283 28.3685 14.8866 28.1402C14.8308 27.8395 14.7864 27.5332 14.7531 27.2239C14.739 27.1266 14.7306 27.0288 14.7225 26.9316C14.7114 26.8284 14.703 26.7282 14.6973 26.6253C14.6835 26.4386 14.6751 26.249 14.6694 26.0597C14.6667 25.9373 14.6637 25.8148 14.6637 25.6924L16.4739 29.2516L19.5845 30.6078L23.2628 30.9388H23.2655L25.9917 31.1866H26.0085L28.5593 31.4176C28.5593 31.4176 28.5593 31.4149 28.562 31.4176L34.2514 31.9304L37.3404 25.6921Z" fill="#4E1E30"/>
<path d="M26.0145 27.4805L26.0118 30.2236V30.2263L26.0091 31.1873V31.9419L26.0064 34.4482V34.4512L26.0037 34.4482H26.001L25.9926 34.4425L15.0394 28.8674C15.0367 28.8506 15.031 28.8338 15.0283 28.817C14.9755 28.5943 14.9281 28.3687 14.8864 28.1404C14.8306 27.8397 14.7862 27.5334 14.7528 27.224C14.7388 27.1268 14.7304 27.029 14.7222 26.9318C14.7111 26.8286 14.7027 26.7284 14.697 26.6254C14.6832 26.4388 14.6748 26.2492 14.6691 26.0599C14.6664 25.9374 14.6635 25.815 14.6635 25.6926V22.3647C14.6635 22.4121 14.6662 22.4595 14.6662 22.5067C14.6884 23.3114 14.8165 24.1969 15.0643 25.1021C15.2566 25.7982 15.4958 26.4415 15.7745 27.0152V27.0179C16.5042 28.5358 17.4818 29.5659 18.381 29.733C18.4368 29.7414 18.4951 29.7471 18.5509 29.7525C18.8989 29.7915 19.2638 29.8138 19.6398 29.8138C21.0602 29.8138 22.3216 28.6721 23.1152 28.2097C23.1209 28.207 23.1263 28.204 23.132 28.2016C23.1737 28.1764 23.2154 28.1512 23.2517 28.1263C23.2628 28.1182 23.2739 28.1125 23.2853 28.107C23.9535 27.7254 24.9172 27.483 25.992 27.4805H26.0145Z" fill="#4E1E30"/>
<path d="M37.3426 22.3633L37.3398 25.6911C37.3398 26.5264 37.2618 27.3453 37.1172 28.1389C37.0587 28.4563 36.9918 28.7711 36.9138 29.0829L34.3433 32.795L26.0053 34.4465H26.0026L25.9999 34.4495V34.4465L25.9915 27.4777H26.014C27.0888 27.4807 28.0552 27.7229 28.7234 28.1042C28.7348 28.1099 28.7429 28.1153 28.754 28.1237C28.793 28.1486 28.8347 28.1738 28.8767 28.1988C28.8794 28.2015 28.8851 28.2044 28.8905 28.2072C29.6869 28.6692 30.9456 29.812 32.366 29.812C32.7419 29.812 33.1068 29.7898 33.4549 29.7508C33.5134 29.7451 33.5689 29.7397 33.6274 29.7313C34.5242 29.5642 35.5045 28.5338 36.2312 27.0162V27.0135C36.5096 26.4398 36.7491 25.7965 36.9414 25.1004C37.192 24.181 37.3231 23.2845 37.3396 22.4686C37.3426 22.4329 37.3426 22.3993 37.3426 22.3633Z" fill="#4E1E30"/>
<path d="M26.0006 31.9417C27.5347 31.9417 28.7783 31.5571 28.7783 31.0828C28.7783 30.6084 27.5347 30.2239 26.0006 30.2239C24.4666 30.2239 23.2229 30.6084 23.2229 31.0828C23.2229 31.5571 24.4666 31.9417 26.0006 31.9417Z" fill="#F0C290"/>
<path d="M26.0028 5.88647H25.992C19.7345 5.89216 14.6634 10.966 14.6634 17.2235V22.2225C14.6634 22.2225 15.1339 19.2398 16.4013 17.7917C17.777 16.2183 17.4289 13.826 20.5146 13.826C22.5057 13.826 22.6171 14.5611 25.9896 14.5611H25.9923H26.0031H26.0058C29.3783 14.5611 29.4897 13.826 31.4808 13.826C34.5665 13.826 34.2181 16.218 35.5941 17.7917C36.8612 19.2398 37.3317 22.2225 37.3317 22.2225V17.2235C37.3314 10.966 32.2603 5.89189 26.0028 5.88647Z" fill="#4E1E30"/>
<path d="M33.4852 44.5635L33.1789 44.8755C31.2685 46.8219 28.7175 47.8943 25.9967 47.8943C23.2482 47.8886 20.7027 46.8138 18.8007 44.8701L18.5081 44.5694C18.653 44.483 18.8006 44.3993 18.9483 44.3186C18.954 44.3129 18.9594 44.3159 18.9594 44.3159V44.3129C19.0791 44.246 19.1961 44.1794 19.3131 44.1095C19.6612 43.898 19.9954 43.664 20.3072 43.4077C20.3099 43.4107 20.3099 43.4107 20.3129 43.4134C21.7555 44.8893 23.7634 45.8057 25.9913 45.8114H26.0137C28.2416 45.8114 30.2576 44.8923 31.7059 43.4164L31.7086 43.4134C31.9064 43.5778 32.1125 43.7311 32.324 43.8731C32.3463 43.8896 32.3658 43.9034 32.388 43.9175C32.4882 43.9844 32.5914 44.0483 32.6943 44.1125C32.8083 44.1821 32.9256 44.249 33.0424 44.3129C33.0619 44.3186 33.076 44.3297 33.0925 44.3381C33.2236 44.4107 33.3571 44.4858 33.4852 44.5635Z" fill="#CC784A"/>
</svg>
