<svg width="53" height="52" viewBox="0 0 53 52" fill="none" xmlns="http://www.w3.org/2000/svg">
<path d="M0.000946045 23.8C0.000946045 14.6344 0.000946045 10.0516 2.06398 6.68502C3.21836 4.80124 4.80219 3.21742 6.68597 2.06304C10.0525 0 14.6353 0 23.8009 0H28.2013C37.3669 0 41.9497 0 45.3162 2.06304C47.2 3.21742 48.7838 4.80124 49.9382 6.68502C52.0013 10.0516 52.0013 14.6344 52.0013 23.8V28.2003C52.0013 37.3659 52.0013 41.9487 49.9382 45.3153C48.7838 47.1991 47.2 48.7829 45.3162 49.9373C41.9497 52.0003 37.3669 52.0003 28.2013 52.0003H23.8009C14.6353 52.0003 10.0525 52.0003 6.68597 49.9373C4.80219 48.7829 3.21836 47.1991 2.06398 45.3153C0.000946045 41.9487 0.000946045 37.3659 0.000946045 28.2003V23.8Z" fill="#EDEDF0"/>
<path d="M26.1226 40.6218C26.0821 40.6218 26.0415 40.6624 26.0009 40.6624C25.9604 40.6624 25.9198 40.6218 25.8792 40.6218H26.1226Z" fill="#84DBFF"/>
<path fill-rule="evenodd" clip-rule="evenodd" d="M47.6375 48.1563C46.9305 48.8271 46.153 49.4245 45.3163 49.9373C41.9497 52.0003 37.3669 52.0003 28.2013 52.0003H23.8009C14.6354 52.0003 10.0526 52.0003 6.68598 49.9373C5.86279 49.4328 5.09688 48.8464 4.39905 48.1887C4.83822 47.4055 5.44628 46.5562 6.0009 45.8145C9.36804 41.3114 14.5202 39.0802 18.7393 37.9849C18.4147 40.6624 19.794 44.2323 19.8346 44.1512C21.2545 40.9058 26.0009 40.6218 26.0009 40.6218C26.0009 40.6218 30.7474 40.9058 32.1267 44.1512C32.1673 44.2323 33.5871 40.6624 33.222 37.9849C37.4817 39.0802 42.6744 41.3114 46.001 45.8145C46.6346 46.6722 47.2098 47.4576 47.6375 48.1563Z" fill="#37CFD1"/>
<path d="M31.8022 35.4696C31.8022 35.4696 31.8022 35.4696 31.8022 35.5102C31.8022 35.9159 31.5994 38.5122 26.1227 40.5812H25.8793C20.4026 38.5122 20.1998 35.9159 20.1998 35.5102C20.1998 35.4696 20.1998 35.4696 20.1998 35.4696C20.1998 34.9422 20.3215 34.4148 20.4432 33.8875C22.0253 35.8753 23.932 37.214 26.001 37.214C28.07 37.214 29.9767 35.8753 31.5588 33.8875C31.6805 34.4148 31.8022 34.9422 31.8022 35.4696Z" fill="#FFD7A3"/>
<path d="M31.8022 35.4697C31.8022 35.4697 32.0862 38.3906 26.001 40.6624C26.001 40.6624 30.7474 40.9464 32.1267 44.1919C32.2079 44.273 34.9259 37.2142 31.8022 35.4697Z" fill="#148A99"/>
<path d="M20.1997 35.4697C17.076 37.2142 19.794 44.273 19.8752 44.1513C21.295 40.9058 26.0009 40.6219 26.0009 40.6219C19.9157 38.3906 20.1997 35.4697 20.1997 35.4697Z" fill="#148A99"/>
<path d="M34.5201 25.206C34.155 27.7213 33.0597 30.0742 31.2341 31.8592C30.869 32.2243 30.5445 32.5083 30.1388 32.7923L29.4897 30.7233H22.512L21.8629 32.7923C20.5647 31.8186 17.8467 29.1006 17.8061 26.5448C16.6702 11.9809 27.8264 15.0641 27.8264 15.0641C35.3315 14.5367 35.0881 21.1493 34.5201 25.206Z" fill="#FFE1B2"/>
<path d="M36.0211 27.843C35.4532 28.7761 34.6824 29.4252 33.9522 29.6686C34.2362 29.0195 34.4796 28.3298 34.6824 27.6402C34.6824 27.6402 34.6824 27.6402 34.6824 27.5996C34.8447 26.9911 35.0069 26.3826 35.1692 25.774H35.1286C35.2909 25.1655 35.4532 24.557 35.5749 23.9485C35.7372 23.9485 35.8994 24.0296 36.0617 24.1108C36.9542 24.6787 36.9136 26.342 36.0211 27.843Z" fill="#FFE1B2"/>
<path d="M18.0496 29.6685C17.3193 29.425 16.5485 28.776 15.9806 27.8429C15.0475 26.3419 15.0475 24.6786 15.94 24.1512C16.0212 24.1106 16.0617 24.0701 16.1429 24.0701C16.6297 25.9768 17.1976 27.3966 17.3193 27.6806C17.5222 28.3297 17.7656 29.0194 18.0496 29.6685Z" fill="#FFE1B2"/>
<path d="M30.4229 11.0072C30.7475 7.27497 24.8245 7.51838 24.8245 7.51838C15.859 8.81655 14.8854 17.1736 14.8854 17.1736L16.1024 15.7131C14.1957 19.8916 17.076 27.0722 17.3195 27.6401C18.8205 32.63 22.147 37.2142 26.001 37.2142C29.855 37.2142 33.1815 32.63 34.6825 27.6401C34.6825 27.6401 34.6825 27.6401 34.6825 27.5995C34.8448 26.991 35.0071 26.3825 35.1288 25.774H35.0882C35.8996 22.5285 36.7921 19.2425 36.7921 19.2425C39.1045 7.59951 30.4229 11.0072 30.4229 11.0072ZM34.5203 25.206C34.1552 27.7212 33.0598 30.0742 31.2343 31.8592C30.8692 32.2243 30.504 32.5083 30.1389 32.7922L29.4898 30.7638H22.5122L21.8631 32.8328C20.5649 31.8592 19.4696 30.5204 18.5771 28.9789C18.1714 28.1675 17.928 27.3156 17.8063 26.5853C16.6704 12.0214 27.8266 15.1046 27.8266 15.1046C35.3316 14.5366 35.0882 21.1492 34.5203 25.206Z" fill="#324A5E"/>
<path d="M30.4229 11.0072C30.7475 7.27497 24.8245 7.51838 24.8245 7.51838C15.859 8.81655 14.8854 17.1736 14.8854 17.1736L16.1024 15.7131C14.1957 19.8916 17.076 27.0722 17.3195 27.6401C18.8205 32.63 22.147 37.2142 26.001 37.2142C29.855 37.2142 33.1815 32.63 34.6825 27.6401C34.6825 27.6401 34.6825 27.6401 34.6825 27.5995C34.8448 26.991 35.0071 26.3825 35.1288 25.774H35.0882C35.8996 22.5285 36.7921 19.2425 36.7921 19.2425C39.1045 7.59951 30.4229 11.0072 30.4229 11.0072ZM34.5203 25.206C34.1552 27.7212 33.0598 30.0742 31.2343 31.8592C30.8692 32.2243 30.504 32.5083 30.1389 32.7922L29.4898 30.7638H22.5122L21.8631 32.8328C20.5649 31.8592 19.4696 30.5204 18.5771 28.9789C18.1714 28.1675 17.928 27.3156 17.8063 26.5853C16.6704 12.0214 27.8266 15.1046 27.8266 15.1046C35.3316 14.5366 35.0882 21.1492 34.5203 25.206Z" fill="#324A5E"/>
<path d="M30.4229 11.0072C30.7475 7.27497 24.8245 7.51838 24.8245 7.51838C15.859 8.81655 14.8854 17.1736 14.8854 17.1736L16.1024 15.7131C14.1957 19.8916 17.076 27.0722 17.3195 27.6401C18.8205 32.63 22.147 37.2142 26.001 37.2142C29.855 37.2142 33.1815 32.63 34.6825 27.6401C34.6825 27.6401 34.6825 27.6401 34.6825 27.5995C34.8448 26.991 35.0071 26.3825 35.1288 25.774H35.0882C35.8996 22.5285 36.7921 19.2425 36.7921 19.2425C39.1045 7.59951 30.4229 11.0072 30.4229 11.0072ZM34.5203 25.206C34.1552 27.7212 33.0598 30.0742 31.2343 31.8592C30.8692 32.2243 30.504 32.5083 30.1389 32.7922L29.4898 30.7638H22.5122L21.8631 32.8328C20.5649 31.8592 17.8468 29.1411 17.8063 26.5853C16.6704 12.0214 27.8266 15.1046 27.8266 15.1046C35.3316 14.5366 35.0882 21.1492 34.5203 25.206Z" fill="#1F0951"/>
<path d="M23.1611 32.1431C23.8507 32.9139 24.8649 33.4412 26.0008 33.4412C27.1367 33.4412 28.1509 32.9544 28.8406 32.1431H23.1611Z" fill="white"/>
</svg>
