<svg width="52" height="52" viewBox="0 0 52 52" fill="none" xmlns="http://www.w3.org/2000/svg">
<path d="M0 23.8C0 14.6344 0 10.0516 2.06304 6.68502C3.21742 4.80124 4.80124 3.21742 6.68502 2.06304C10.0516 0 14.6344 0 23.8 0H28.2003C37.3659 0 41.9487 0 45.3153 2.06304C47.1991 3.21742 48.7829 4.80124 49.9373 6.68502C52.0003 10.0516 52.0003 14.6344 52.0003 23.8V28.2003C52.0003 37.3659 52.0003 41.9487 49.9373 45.3153C48.7829 47.1991 47.1991 48.7829 45.3153 49.9373C41.9487 52.0003 37.3659 52.0003 28.2003 52.0003H23.8C14.6344 52.0003 10.0516 52.0003 6.68502 49.9373C4.80124 48.7829 3.21742 47.1991 2.06304 45.3153C0 41.9487 0 37.3659 0 28.2003V23.8Z" fill="#44CB7F"/>
<path d="M40.149 23.355V21.4017C40.149 20.8815 40.2701 20.3684 40.5028 19.9031C40.9664 18.7442 41.1174 17.4838 40.9409 16.2482L40.8566 15.6577H24.2289L11.4928 36.177L23.5213 40.0686L31.3045 29.8089H38.7339H40.4843C40.7291 29.8089 40.9706 29.7519 41.1895 29.6425C41.435 29.5197 41.6442 29.335 41.7964 29.1067L41.9402 28.891C42.1564 28.5668 42.2717 28.1859 42.2717 27.7962C42.2717 27.2728 42.0637 26.7708 41.6936 26.4006L41.2103 25.9174C40.5308 25.2378 40.149 24.3161 40.149 23.355Z" fill="#FFE1B2"/>
<path fill-rule="evenodd" clip-rule="evenodd" d="M29.0563 52.0002C28.7755 52.0003 28.4902 52.0003 28.2003 52.0003H23.8C14.6344 52.0003 10.0516 52.0003 6.68502 49.9373C5.81386 49.4034 5.00685 48.7777 4.27679 48.073C4.94947 43.5227 9.38287 36.7081 10.8535 34.9294C11.2306 34.4732 11.8592 34.3185 12.4123 34.5293L24.7842 39.2423C25.7757 39.6201 26.5503 40.4217 26.8645 41.4352C27.8605 44.6486 28.5911 48.5396 29.0563 52.0002Z" fill="#FFCA61"/>
<path d="M39.0859 29.4552C37.3151 28.3937 31.6584 28.7475 31.3046 28.3938C29.182 26.2718 32.188 18.3122 33.7792 15.6578C47.2248 19.9031 47.2244 8.22847 34.8406 8.93602C21.2589 3.36416 10.7625 12.5325 17.1862 27.6678C17.3767 28.1167 17.7971 28.4329 18.2811 28.4917C19.7685 28.6724 22.8984 29.0166 23.1658 28.7476C23.5177 28.3937 24.5828 25.9175 23.8734 25.5636C16.1688 21.7205 27.1908 14.097 28.3717 21.3712C28.5154 22.2565 28.3146 23.1681 27.9055 23.9663C26.354 26.994 23.947 29.7703 24.9347 33.7006C25.2904 35.1158 31.0216 37.8753 34.1349 37.5923C37.2482 37.3092 40.8567 30.5167 39.0859 29.4552Z" fill="#4E1E30"/>
<path d="M36.6121 23.0872C36.6121 23.6734 37.0872 24.1486 37.6734 24.1486C38.2596 24.1486 38.7347 23.6734 38.7347 23.0872C38.7347 22.5011 38.2596 22.0259 37.6734 22.0259C37.0872 22.0259 36.6121 22.5011 36.6121 23.0872Z" fill="#4A1827"/>
<path d="M40.1495 19.9031C40.1495 19.5123 39.8327 19.1956 39.442 19.1956H35.9042C35.5134 19.1956 35.1966 19.5123 35.1966 19.9031C35.1966 20.2939 35.5134 20.6107 35.9042 20.6107H39.442C39.8327 20.6107 40.1495 20.2939 40.1495 19.9031Z" fill="#4E1E30"/>
</svg>
