<svg width="52" height="52" viewBox="0 0 52 52" fill="none" xmlns="http://www.w3.org/2000/svg">
<g clip-path="url(#clip0_319:77)">
<path d="M0.00062561 23.8C0.00062561 14.6344 0.00062561 10.0516 2.06366 6.68502C3.21804 4.80124 4.80187 3.21742 6.68565 2.06304C10.0522 0 14.635 0 23.8006 0H28.201C37.3666 0 41.9493 0 45.3159 2.06304C47.1997 3.21742 48.7835 4.80124 49.9379 6.68502C52.0009 10.0516 52.0009 14.6344 52.0009 23.8V28.2003C52.0009 37.3659 52.0009 41.9487 49.9379 45.3153C48.7835 47.1991 47.1997 48.7829 45.3159 49.9373C41.9493 52.0003 37.3665 52.0003 28.2009 52.0003H23.8006C14.635 52.0003 10.0522 52.0003 6.68565 49.9373C4.80187 48.7829 3.21804 47.1991 2.06366 45.3153C0.00062561 41.9487 0.00062561 37.3659 0.00062561 28.2003V23.8Z" fill="#FF9054"/>
<path d="M16.981 35.0537C14.7285 29.3711 9.99712 24.2283 15.9509 13.8691C18.4029 9.60271 22.1484 6.78895 26.0177 7.7416C29.887 6.78905 33.6325 9.60281 36.0846 13.8691C42.0381 24.2283 37.307 29.3711 35.0543 35.0537L26.018 35.076L16.9813 35.0537H16.981Z" fill="#1F0951"/>
<path fill-rule="evenodd" clip-rule="evenodd" d="M42.9174 51.0098C39.744 52 35.3771 52 28.2008 52H23.8005C16.6243 52 12.2574 52 9.08405 51.0098C9.42126 49.7143 9.74287 48.2604 10.0203 47.0061C10.3668 45.4398 10.6445 44.1846 10.7978 43.9371C12.7254 40.8248 15.1181 39.718 17.2216 38.7451C19.85 37.5293 22.0268 36.5225 22.2795 32.0727C22.2795 32.0727 24.2817 33.6065 25.9249 33.5919C27.5679 33.5772 29.7197 31.9714 29.7197 31.9714C29.9734 36.4331 32.1572 37.4648 34.7921 38.7097C36.8922 39.7019 39.2789 40.8295 41.2034 43.9371C41.3566 44.1842 41.634 45.4383 41.9803 47.0033C42.2579 48.2584 42.5798 49.7134 42.9174 51.0098Z" fill="#FFD7A3"/>
<path d="M29.8361 33.1039C29.7822 32.7525 29.7425 32.3766 29.7196 31.9717C29.7196 31.9717 27.5678 33.5774 25.9248 33.5921C24.2817 33.6068 22.2794 32.073 22.2794 32.073C22.2562 32.4853 22.2155 32.8667 22.1599 33.2228C22.2019 33.2561 22.2437 33.2898 22.2866 33.3227L22.286 33.3285C22.4126 33.4387 24.3359 35.0926 25.9245 35.0759C27.513 35.0925 29.4362 33.4384 29.5629 33.3285L29.5626 33.3227C29.6559 33.2513 29.7464 33.1778 29.8358 33.1041L29.8361 33.1039Z" fill="#F0C290"/>
<path d="M22.2864 32.0781C22.4129 32.1736 24.3362 33.6063 25.9248 33.592C27.5134 33.6063 29.4365 32.1734 29.5632 32.0781C31.9643 30.6783 33.9345 26.5511 33.4898 22.0782C33.1256 18.4143 29.162 23.7866 26.4014 16.2268C22.4942 24.4115 18.7832 19.57 18.3601 22.6718C17.8938 26.0894 19.8125 30.3896 22.2864 32.0783V32.0781Z" fill="#FFE1B2"/>
<path fill-rule="evenodd" clip-rule="evenodd" d="M42.9558 50.9977C39.7793 52 35.4061 52 28.2008 52H23.8005C16.5944 52 12.2211 52 9.04446 50.9974C9.43567 49.3054 9.8075 47.0777 10.1159 45.2301C10.4175 43.4232 10.6585 41.9797 10.7975 41.7562C11.8749 40.024 14.1007 39.4094 16.1729 38.8371C17.266 38.5353 18.3165 38.2452 19.1331 37.8091L19.1338 37.81C23.5184 51.8757 29.0037 50.9655 32.6839 37.6135C33.4803 38.0412 34.5816 38.338 35.7339 38.6486C38.0064 39.2611 40.4777 39.9272 41.2028 41.7562C41.2865 41.9672 41.4763 43.07 41.7266 44.5249C42.0635 46.4829 42.5101 49.0786 42.9558 50.9977ZM19.1334 37.8089C19.1333 37.809 19.1332 37.809 19.1331 37.8091L19.133 37.8089H19.1334ZM19.1334 37.8089C19.1335 37.8089 19.1335 37.8089 19.1336 37.8088V37.8089H19.1334Z" fill="#3A63DE"/>
<path d="M20.7106 36.4819C20.557 40.636 21.2632 46.5211 25.9243 48.025C21.5361 48.2085 18.6886 41.8858 15.4448 40.2298L20.7105 36.4822V36.4819H20.7106Z" fill="white"/>
<path d="M31.3993 36.4819C31.5605 40.636 30.819 46.5211 25.9244 48.025C30.5324 48.2085 33.5226 41.8858 36.9283 40.2298L31.3991 36.4822L31.3993 36.4819Z" fill="white"/>
</g>
<defs>
<clipPath id="clip0_319:77">
<rect width="52.0003" height="52.0003" fill="white" transform="translate(0.00062561)"/>
</clipPath>
</defs>
</svg>
