<svg width="52" height="52" viewBox="0 0 52 52" fill="none" xmlns="http://www.w3.org/2000/svg">
<path d="M0 23.7998C0 14.6343 0 10.0515 2.06303 6.68498C3.2174 4.80121 4.80121 3.2174 6.68498 2.06303C10.0515 0 14.6343 0 23.7999 0H28.2002C37.3657 0 41.9485 0 45.315 2.06303C47.1988 3.2174 48.7826 4.80121 49.937 6.68498C52 10.0515 52 14.6343 52 23.7999V28.2002C52 37.3657 52 41.9485 49.937 45.315C48.7826 47.1988 47.1988 48.7826 45.315 49.937C41.9485 52 37.3657 52 28.2001 52H23.7998C14.6343 52 10.0515 52 6.68498 49.937C4.80121 48.7826 3.2174 47.1988 2.06303 45.315C0 41.9485 0 37.3657 0 28.2001V23.7998Z" fill="#FFBB5D"/>
<path d="M33.82 40.9102V35.0715H18.806V40.9102L26.313 47.5831L33.82 40.9102Z" fill="#FFD7A3"/>
<path fill-rule="evenodd" clip-rule="evenodd" d="M47.9998 47.7982C47.1987 48.6157 46.2977 49.3348 45.315 49.937C41.9485 52 37.3657 52 28.2001 52H23.7998C14.6343 52 10.0515 52 6.68498 49.937C5.95047 49.4869 5.26157 48.9715 4.62595 48.3985V46.8895C4.62595 45.3412 5.69109 43.9964 7.19827 43.6417L17.5198 41.2131C17.813 41.144 18.0712 40.9985 18.2792 40.8027L26.313 45.9152L34.6728 41.0386C34.807 41.1141 34.9503 41.1764 35.1062 41.213L45.4278 43.6416C46.9348 43.9962 48 45.3411 47.9998 46.8895V47.7982Z" fill="#8B63E7"/>
<path d="M18.806 35.0716V41.232C28.2628 44.6392 33.82 36.1118 33.82 36.1118V35.0715H18.806V35.0716Z" fill="#F0C290"/>
<path d="M15.4696 15.8872L16.1964 31.8783C16.2643 33.3722 16.9968 34.7575 18.1931 35.6548L21.6419 38.2414C22.5083 38.8911 23.5619 39.2424 24.6448 39.2424H27.9813C29.0642 39.2424 30.1178 38.8912 30.9841 38.2414L34.433 35.6548C35.6293 34.7574 36.3618 33.3722 36.4296 31.8783L37.1565 15.8872C37.1564 15.8872 15.4696 15.8872 15.4696 15.8872Z" fill="#FFE1B2"/>
<path fill-rule="evenodd" clip-rule="evenodd" d="M28.1839 51.9997H24.4426L24.7493 47.5833H27.8772L28.1839 51.9997Z" fill="#5B5D6E"/>
<path d="M28.3985 45.915H24.2279V47.4849C24.2279 48 24.6454 48.4174 25.1605 48.4174H27.4659C27.981 48.4174 28.3985 48 28.3985 47.4849V45.915H28.3985Z" fill="#515262"/>
<path d="M18.689 39.0533L26.3132 45.915C26.3132 45.915 24.178 46.9929 21.5431 49.1654C20.9996 49.6135 20.1774 49.432 19.8859 48.7907L16.3039 40.9104L17.437 39.2107C17.719 38.7874 18.3109 38.7131 18.689 39.0533Z" fill="white"/>
<path d="M33.9373 39.0533L26.3131 45.915C26.3131 45.915 28.4483 46.9929 31.0832 49.1654C31.6267 49.6135 32.4489 49.432 32.7404 48.7907L36.3224 40.9104L35.1892 39.2107C34.9072 38.7874 34.3153 38.7131 33.9373 39.0533Z" fill="white"/>
<path d="M31.3698 10.361L32.1518 15.887C35.7213 16.6009 36.2357 22.2027 36.3098 23.8027C36.3232 24.0931 36.4159 24.3734 36.5734 24.6177L37.9354 26.7304C37.9354 26.7304 37.4692 23.2375 39.6036 20.8916C39.6037 20.8916 40.3366 7.02447 31.3698 10.361Z" fill="#4E1E30"/>
<path d="M38.7723 26.3748L37.8307 30.1414C37.7191 30.5879 37.318 30.9009 36.8578 30.9009C36.3519 30.9009 35.9254 30.5244 35.8626 30.0225L35.381 26.17C35.2521 25.1388 36.0561 24.228 37.0953 24.228H37.0961C38.2202 24.2281 39.0449 25.2843 38.7723 26.3748Z" fill="#FFE1B2"/>
<path d="M16.2692 8.86654L17.5029 9.70934C11.9248 13.8278 12.9674 20.8917 12.9674 20.8917C14.6356 22.5599 14.6356 26.7305 14.6356 26.7305L16.3038 25.0623C16.3038 25.0623 15.66 20.2433 18.8061 18.3894C21.7255 16.669 24.28 17.5553 26.8866 17.5553C33.8723 17.5553 35.8273 14.9226 35.4884 11.7165C35.313 10.0576 32.7766 6.60189 26.3132 6.71179C23.7048 6.75611 18.8063 7.54589 16.2692 8.86654Z" fill="#66273F"/>
<path d="M15.7826 16.8255C15.7826 16.8255 14.8963 13.3326 17.5029 9.70947C11.9248 13.8279 12.9674 20.8918 12.9674 20.8918C14.6356 22.56 14.6356 26.7306 14.6356 26.7306L16.3038 25.0624C16.3038 25.0624 15.66 20.2434 18.8061 18.3895C21.7255 16.6692 24.28 17.5554 26.8866 17.5554C28.0227 17.5554 29.0127 17.4794 29.8945 17.349C24.5148 17.5293 21.3435 13.4542 15.7826 16.8255Z" fill="#4E1E30"/>
<path d="M13.8542 26.3748L14.7958 30.1414C14.9074 30.5879 15.3085 30.9009 15.7687 30.9009C16.2746 30.9009 16.7011 30.5244 16.7639 30.0225L17.2455 26.17C17.3744 25.1388 16.5704 24.228 15.5312 24.228H15.5304C14.4063 24.2281 13.5816 25.2843 13.8542 26.3748Z" fill="#FFE1B2"/>
</svg>
