<svg width="22" height="22" viewBox="0 0 22 22" fill="none" xmlns="http://www.w3.org/2000/svg">
<path d="M10.8676 20.9998C16.3173 20.9998 20.7352 16.582 20.7352 11.1322C20.7352 5.68252 16.3173 1.26465 10.8676 1.26465C5.41787 1.26465 1 5.68252 1 11.1322C1 16.582 5.41787 20.9998 10.8676 20.9998Z" fill="#FFD93B"/>
<path d="M17.2475 13.5716C16.6737 16.5754 14.0343 18.8385 10.8706 18.8385C7.70054 18.8385 5.06114 16.5754 4.49363 13.5716C4.43801 13.2816 4.70926 13.0347 4.99301 13.1153C8.90305 14.1947 12.8193 14.1885 16.7481 13.1091C17.0319 13.0347 17.3031 13.2816 17.2475 13.5716Z" fill="#3E4347"/>
<path d="M5.66406 13.2769C6.60345 15.08 8.46596 15.61 10.8447 15.61C13.2148 15.61 15.0691 15.0819 16.0123 13.2912C12.5573 14.1212 9.10722 14.1187 5.66406 13.2769Z" fill="white"/>
<path d="M20.7345 11.1325C20.7345 16.5844 16.3157 21.0001 10.8669 21.0001C7.76496 21.0001 4.99556 19.5694 3.18555 17.3276C4.87869 18.6969 7.03371 19.5138 9.3806 19.5138C14.8294 19.5138 19.2482 15.0982 19.2482 9.64623C19.2482 7.29933 18.4313 5.14369 17.0619 3.45117C19.3007 5.26119 20.7345 8.02996 20.7345 11.1325Z" fill="#F4C534"/>
<path d="M9.93339 7.27569C9.93339 9.41821 7.39399 12.0782 4.79584 11.0788C3.60833 10.6163 2.74769 9.49258 2.61332 8.21757C2.49019 6.81318 3.20457 5.48504 4.43333 4.82379C6.44085 3.8044 9.93339 4.88441 9.93339 7.27569Z" fill="white"/>
<path d="M16.9438 11.0788C15.6713 11.5681 14.3844 11.2175 13.3569 10.3119C11.7075 8.87125 10.9969 6.40685 13.1582 5.08684C14.3926 4.33808 16.1307 4.22683 17.2895 4.82371C19.8832 6.20622 19.717 9.99938 16.9438 11.0788Z" fill="white"/>
<path d="M19.9568 4.23441H19.6293C18.7224 4.23441 17.8037 4.18191 16.9262 3.95941C15.3055 3.54378 13.3918 4.04128 12.3211 5.15317C11.9761 5.50442 11.4905 5.6738 10.9986 5.6738H10.753C10.2555 5.6738 9.76422 5.5038 9.41922 5.14754C8.33046 4.03566 6.40481 3.54378 4.80167 3.95941C3.92979 4.18191 3.02291 4.23441 2.1279 4.23441H1.77664C1.56039 4.23441 1.38477 4.41004 1.38477 4.63254V5.85568C1.38477 6.0138 1.48977 6.1363 1.63039 6.20693C1.81164 6.30006 1.93477 6.48756 1.93477 6.70443C1.93477 6.75006 1.92915 6.80319 1.91102 6.85006C0.840385 10.817 5.5098 14.0001 8.81546 10.8113C9.51172 10.1213 10.0148 9.32508 10.243 8.42445C10.313 8.14382 10.5767 7.96195 10.8692 7.96195C11.1561 7.96195 11.4249 8.1432 11.4892 8.42445C11.7174 9.32571 12.2205 10.1213 12.9167 10.8113C16.2055 13.9889 20.8918 10.8463 19.8212 6.84444C19.7512 6.58131 19.8799 6.32381 20.1018 6.20693C20.2424 6.1363 20.3474 6.00755 20.3474 5.85005V4.63254C20.3487 4.40941 20.1731 4.23441 19.9568 4.23441ZM8.1842 10.0913C5.91418 12.0982 3.15228 10.5007 2.90665 8.18382C2.78978 6.89631 3.45104 5.68567 4.57417 5.08254C6.35919 4.16941 9.64172 5.10567 9.64172 7.27694C9.64109 8.35945 8.98546 9.39508 8.1842 10.0913ZM18.8274 8.18382C18.5818 10.5007 15.8255 12.0982 13.5493 10.0913C12.7536 9.39446 12.098 8.35882 12.098 7.27694C12.098 5.10567 15.3805 4.17004 17.1537 5.08254C18.283 5.68567 18.9443 6.89631 18.8274 8.18382Z" fill="#3E4347"/>
<path d="M15.0663 9.50573C15.9044 9.50573 16.5839 8.82632 16.5839 7.98822C16.5839 7.15012 15.9044 6.4707 15.0663 6.4707C14.2282 6.4707 13.5488 7.15012 13.5488 7.98822C13.5488 8.82632 14.2282 9.50573 15.0663 9.50573Z" fill="#3E4347"/>
<path d="M15.8647 7.18623C15.6829 7.00439 15.4326 6.95987 15.3057 7.08679C15.1788 7.21372 15.2233 7.46401 15.4051 7.64585C15.587 7.82769 15.8373 7.87221 15.9642 7.74529C16.0911 7.61837 16.0466 7.36807 15.8647 7.18623Z" fill="white"/>
<path d="M6.81439 9.50573C7.65249 9.50573 8.3319 8.82632 8.3319 7.98822C8.3319 7.15012 7.65249 6.4707 6.81439 6.4707C5.97629 6.4707 5.29688 7.15012 5.29688 7.98822C5.29688 8.82632 5.97629 9.50573 6.81439 9.50573Z" fill="#3E4347"/>
<path d="M7.61279 7.18574C7.43096 7.00391 7.18066 6.95939 7.05374 7.08631C6.92682 7.21323 6.97134 7.46353 7.15318 7.64536C7.33501 7.8272 7.58531 7.87172 7.71223 7.7448C7.83915 7.61788 7.79463 7.36758 7.61279 7.18574Z" fill="white"/>
<path d="M8.46569 2.01295C8.49007 1.93545 4.88691 2.0317 3.81627 4.03359C3.54439 4.02984 6.18254 -1.12521 8.46569 2.01295Z" fill="#3E4347"/>
<path d="M13.2697 2.01295C13.2453 1.93545 16.8484 2.0317 17.9191 4.03359C18.191 4.02984 15.5528 -1.12521 13.2697 2.01295Z" fill="#3E4347"/>
<path d="M10.323 16.7151C8.26108 16.7151 7.36982 15.5976 6.95794 16.7813C6.87856 17.0088 6.85669 17.237 6.87544 17.4613C7.97732 18.3226 9.36234 18.8389 10.8711 18.8389C12.3792 18.8389 13.7643 18.3207 14.8674 17.457C14.8855 17.2338 14.863 17.007 14.7843 16.7807C14.3724 15.5976 12.3849 16.7151 10.323 16.7151Z" fill="#E24B4B"/>
</svg>
